<?xml version="1.0" encoding="utf-8"?>
<!-- Generator: Adobe Illustrator 18.1.1, SVG Export Plug-In . SVG Version: 6.00 Build 0)  -->
<svg version="1.1" id="Layer_1" xmlns="http://www.w3.org/2000/svg" xmlns:xlink="http://www.w3.org/1999/xlink" x="0px" y="0px"
	 viewBox="0 0 161.4 27.6" enable-background="new 0 0 161.4 27.6" xml:space="preserve">
<g>
	<g>
		<g>
			<path fill="#1D1D1B" d="M134.6,7.5c-1.8,0-3,1-3.4,1.9V1.5H129v18.7h2.2v-8.9c0-1.6,1.3-3.2,3-3.2c1.8,0,2.6,1.4,2.6,3.5v8.6h2.2
				v-8.3C139,9.3,137.1,7.5,134.6,7.5z"/>
			<rect x="85.6" y="1.5" fill="#1D1D1B" width="2.2" height="18.7"/>
			<path fill="#1D1D1B" d="M65.5,7.5c-1.8,0-3,1-3.4,1.9V7.9h-2.2v12.3h2.2v-8.9c0-1.6,1.3-3.2,3-3.2c1.8,0,2.6,1.4,2.6,3.5v8.6h2.2
				v-8.3C69.9,9.3,68,7.5,65.5,7.5z"/>
			<path fill="#1D1D1B" d="M150,16.5c0,2.1-1,3.5-2.8,3.5c-1.9,0-2.8-1.4-2.8-3.5V7.9h-2.2l0,7.6c0,3,1.7,5.1,4.9,5.1
				c3.3,0,5-2.1,5-5.1V7.9H150V16.5z"/>
			<path fill="#1D1D1B" d="M54.1,16.5c0,2.1-1,3.5-2.8,3.5c-1.9,0-2.8-1.4-2.8-3.5V7.9h-2.2l0,7.6c0,3,1.7,5.1,4.9,5.1
				c3.3,0,5-2.1,5-5.1V7.9h-2.2V16.5z"/>
			<path fill="#1D1D1B" d="M94.7,19.8c-1.4,0-1.8-1.3-1.8-2.8c0-1.8,0.5-2.6,2.2-3.1c1.4-0.4,2-0.6,2.5-1v4
				C97.5,18.4,96.3,19.8,94.7,19.8L94.7,19.8z M94.5,20.4c1.4,0,2.5-0.8,3-1.6v1.3h2.1v-7.6c0-3.1-2.2-4.9-4.6-4.9
				c-1.8,0-3.2,0.8-3.9,2.6l0.7,0.3c0.5-1.4,1.5-2.2,3.3-2.2c1.8,0,2.7,1.1,2.7,2.4c0,1.7-1,2-2.9,2.5c-2.4,0.7-4.1,1.2-4.1,3.8
				C90.7,18.9,91.9,20.4,94.5,20.4z"/>
			<path fill="#1D1D1B" d="M83.1,7.9h-3.4c-0.6-0.3-1.4-0.4-2.3-0.4c-3.1,0-4.7,1.9-4.7,4.8c0,2,0.9,3.4,2.4,4.2
				c-1.1,0.3-1.6,1.2-1.6,2.2c0,2,2.1,2.4,4.2,2.5c2.3,0.2,3.5,0.2,3.5,2c0,1.5-1.7,2.4-3.6,2.4c-1.4,0-2.6-0.4-3.4-1.1L73.6,25
				c0.9,0.8,2.2,1.3,3.8,1.3c2.7,0,5.2-1.6,5.2-3.9c0-3-2.6-3.2-5.1-3.3c-1.7-0.1-3.3-0.1-3.3-0.9c0-1.2,1.4-1.1,3.1-1.2
				c3.1,0,4.8-1.9,4.8-4.7c0-1.6-0.5-2.9-1.5-3.7h2.4V7.9z M80,12.9c0,2.7-0.9,3.5-2.6,3.5c-1.7,0-2.6-0.8-2.6-3.5v-1.1
				c0-2.8,0.9-3.7,2.6-3.7c1.7,0,2.6,0.8,2.6,3.7V12.9z"/>
			<path fill="#1D1D1B" d="M38.9,12.7c-1.7-0.2-3.1-0.6-3.1-2c0-1.3,1.5-2.3,3.1-2.3c1.1,0,2.2,0.4,2.6,0.8
				c-0.5,0.2-0.9,0.6-0.9,1.2c0,0.7,0.6,1.2,1.2,1.2c0.7,0,1.2-0.6,1.2-1.2c0-1.1-1.5-2.7-4.2-2.7c-2.5,0-4.1,1.7-4.1,3.8
				c0,2.6,2.1,3.2,4.2,3.5c1.8,0.3,3.4,0.9,3.4,2.6c0,1.5-1.5,2.3-3.3,2.3c-1.3,0-2.3-0.5-3-1.2l-0.5,0.5c0.9,0.9,2.2,1.4,3.6,1.4
				c2.5,0,4.6-1.6,4.6-3.9C43.7,14.7,43,13.2,38.9,12.7z"/>
			<path fill="#1D1D1B" d="M106.3,12.7c-1.7-0.2-3.2-0.6-3.2-2c0-1.3,1.5-2.3,3.1-2.3c1.1,0,2.2,0.4,2.6,0.8
				c-0.5,0.2-0.9,0.6-0.9,1.2c0,0.7,0.6,1.2,1.2,1.2c0.7,0,1.2-0.6,1.2-1.2c0-1.1-1.5-2.7-4.2-2.7c-2.5,0-4.1,1.7-4.1,3.8
				c0,2.6,2.1,3.2,4.2,3.5c1.8,0.3,3.4,0.7,3.4,2.5c0,1.5-1.5,2.5-3.3,2.5c-1.3,0-2.3-0.5-3-1.2l-0.5,0.5c0.9,0.9,2.2,1.4,3.6,1.4
				c2.5,0,4.6-1.6,4.6-3.9C111.1,14.7,110.4,13.2,106.3,12.7z"/>
			<path fill="#1D1D1B" d="M117.2,12.7c-1.7-0.2-3.2-0.6-3.2-2c0-1.3,1.5-2.3,3.1-2.3c1.1,0,2.2,0.4,2.6,0.8
				c-0.5,0.2-0.9,0.6-0.9,1.2c0,0.7,0.6,1.2,1.2,1.2c0.7,0,1.2-0.6,1.2-1.2c0-1.1-1.5-2.7-4.2-2.7c-2.5,0-4.1,1.7-4.1,3.8
				c0,2.6,2.1,3.2,4.2,3.5c1.8,0.3,3.4,0.9,3.4,2.6c0,1.5-1.5,2.3-3.3,2.3c-1.3,0-2.3-0.5-3-1.2l-0.5,0.5c0.9,0.9,2.2,1.4,3.6,1.4
				c2.5,0,4.6-1.6,4.6-3.9C122,14.7,121.3,13.2,117.2,12.7z"/>
			<path fill="#1D1D1B" d="M161.3,19.6c-0.3,0.1-0.5,0.1-0.8,0.1c-1.8,0-2.2-1.2-2.2-3.4V8.5h2.9V7.9h-2.9V3.3h-2.2v4.7h-1.4v0.6
				h1.4v7.1c0,3.2,1.5,4.8,3.9,4.8c0.6,0,1.1-0.1,1.5-0.2L161.3,19.6z"/>
		</g>
	</g>
	<circle fill="#1D1D1B" cx="13.8" cy="13.8" r="13.8"/>
</g>
</svg>
